<svg width="260" height="400" viewBox="0 0 195 300" xmlns="http://www.w3.org/2000/svg"><g fill="#A2A2A2"><path class="node" d="M90.7 20c-7.6 1.9-15.4 7.2-19 13-1.2 1.9-3.3 6.9-4.7 11l-2.6 7.4-4.9-.4c-13.7-1.3-21.7.9-29.8 7.9-7.5 6.7-11.7 19-9.7 28.8 2.2 10.3 9 18.8 19.4 24 2.8 1.4 5.3 2.7 5.5 2.9.2.1-1.1 3.7-2.8 7.8-9.6 23.1 4.2 45.9 27.9 45.9 8.9 0 14.2-2 21.2-8.2 2.5-2.2 5.2-4.1 6-4.1.7 0 3 1.2 5.1 2.6 7.1 4.8 11.8 6.4 19.2 6.4 5.3 0 8.2-.6 12.1-2.4 16.1-7.5 22.8-23.1 17.5-40.6-1.2-4-2.1-7.4-1.9-7.6.2-.2 2.9-1.4 5.9-2.8 10.5-4.6 17.7-13.3 19.9-23.9 3.6-17.6-11-36.4-28.8-37-3.1-.1-7.9 0-10.7.3l-4.9.4L128 44c-1.4-4.1-3.5-9.1-4.7-11-6.1-9.7-21.3-15.8-32.6-13z" fill="#b0c4de"/><path class="node" d="M89.4 75.8C77.3 80.1 70 91.2 71.3 103.6c.7 6.8 3.6 12.3 9.1 17.1 9.8 8.6 24.4 8.6 34.2 0 6.7-5.9 8.9-10.7 8.9-19.7 0-5.8-.5-8.4-2.2-11.6-6.4-12.1-20-17.9-31.9-13.6z" fill="#b0c4de"/></g><path d="M131.839 220.962c-.332-.444 10.313-17.244 26.068-22.184 14.828-4.65 31.245-1.456 30.808 2.64 2.298 3.689-11.849 17.021-25.278 20.6-16.588 4.42-31.598.948-31.598-1.056zm-9.457 31.485c.529-.529-16.44-20.556-41.557-26.445-23.641-5.544-49.81-1.737-49.114 3.148-3.664 4.397 18.89 20.291 40.298 24.556 26.445 5.27 50.373 1.131 50.373-1.259z" fill="#2e8b57"/><g fill="#343a40"><path class="node" d="M88.4 1C74 3.6 59.4 14.5 52.7 27.6c-1.4 2.7-2.2 3.1-8.8 4.1C27.4 34.3 13 45 5.6 60.2c-9.7 19.9-5.8 41.6 10.5 58.3l4.9 5-1.1 6.5c-3.2 20.2 8.5 42.8 27.3 52.3 5.7 2.9 16.9 5.7 22.8 5.7 6.2 0 17.3-2.9 23.3-6l5.8-3 4.7 2.2 4.7 2.3 3.1 12c5.8 21.8 5.9 22.9 5.9 44 0 17.6-.3 21.2-2.4 30-1.3 5.5-2.9 11.6-3.6 13.6l-1.3 3.6 9 2.9c7.2 2.3 9.1 2.6 9.8 1.5.4-.8 2.2-7.2 3.9-14.2 6.6-27 6-52.9-1.9-84-1.1-4.2-2-8-2-8.2 0-.3 1.5-.8 3.3-1.2 7.2-1.5 17.9-7.5 24.2-13.5 10.4-10.1 15.5-22.2 15.5-37.2V125l6.8-6.7c20.5-20.2 21.1-50.2 1.5-71.3-7-7.6-18.5-13.6-29.2-15.3-6.6-1-7.4-1.3-8.8-4.1-5.2-10.4-17-20.6-28.4-24.5C107.3.7 95.4-.2 88.4 1zm21.2 21c9.7 4.2 14.2 9.6 18.4 22l2.6 7.4 4.9-.4c13.7-1.3 21.7.9 29.8 7.9 7.5 6.7 11.7 19 9.7 28.8-2.2 10.6-9.4 19.3-19.9 23.9-3 1.4-5.7 2.6-5.9 2.8-.2.2.7 3.6 1.9 7.6 5.3 17.5-1.4 33.1-17.5 40.6-3.9 1.8-6.8 2.4-12.1 2.4-7.4 0-12.1-1.6-19.2-6.4-2.1-1.4-4.4-2.6-5.1-2.6-.8 0-3.5 1.9-6 4.1-7 6.2-12.3 8.2-21.2 8.2-23.7 0-37.5-22.8-27.9-45.9 1.7-4.1 3-7.7 2.8-7.8-.2-.2-2.7-1.5-5.5-2.9C29 106.5 22.2 98 20 87.7c-3.6-17.6 11-36.4 28.8-37 3.1-.1 7.9 0 10.7.3l4.9.4L67 44c4-11.8 7.9-16.8 16.7-21.4 7.7-3.9 17.9-4.2 25.9-.6z"/><path class="node" d="M89.2 73.827c-12.914 2.81-21.189 16.597-17.815 29.588 1.106 4.243 2.582 6.947 5.428 10.076 5.165 5.514 10.33 7.794 17.762 7.794s12.597-2.28 17.762-7.794c8.644-9.333 8.222-24.021-.949-33.248-3.426-3.447-7.062-5.462-11.648-6.416-4.322-.955-6.272-.955-10.54 0zm11.067 10.764c2.689 1.22 5.271 3.712 6.852 6.682 1.634 3.075 1.634 9.226 0 12.302-1.528 2.863-5.323 6.204-7.958 7-4.955 1.484-10.014.476-13.599-2.705-5.481-4.826-6.482-12.302-2.477-18.294 3.9-5.78 10.805-7.795 17.182-4.985z"/></g></svg>