<svg width="260" height="400" viewBox="0 0 195 300" xmlns="http://www.w3.org/2000/svg"><g fill="#A2A2A2"><path class="node" d="M907 2800c-76-19-154-72-190-130-12-19-33-69-47-110l-26-74-49 4c-137 13-217-9-298-79-75-67-117-190-97-288 22-103 90-188 194-240 28-14 53-27 55-29 2-1-11-37-28-78-96-231 42-459 279-459 89 0 142 20 212 82 25 22 52 41 60 41 7 0 30-12 51-26 71-48 118-64 192-64 53 0 82 6 121 24 161 75 228 231 175 406-12 40-21 74-19 76s29 14 59 28c105 46 177 133 199 239 36 176-110 364-288 370-31 1-79 0-107-3l-49-4-26 74c-14 41-35 91-47 110-61 97-213 158-326 130Z" style="fill:#b0c4de" transform="matrix(.1 0 0 -.1 0 300)"/><path class="node" d="M894 2242c-121-43-194-154-181-278 7-68 36-123 91-171 98-86 244-86 342 0 67 59 89 107 89 197 0 58-5 84-22 116-64 121-200 179-319 136Z" style="fill:#b0c4de" transform="matrix(.1 0 0 -.1 0 300)"/></g><path d="M190.681 199.604c.332.444-10.313 17.244-26.068 22.184-14.828 4.65-31.245 1.456-30.808-2.64-2.298-3.689 11.849-17.021 25.278-20.6 16.588-4.42 31.598-.948 31.598 1.056Z" style="stroke:#343a40;stroke-width:0;fill:#2e8b57" transform="rotate(-180 161.26 210.283)"/><path d="M122.382 252.447c.529-.529-16.44-20.556-41.557-26.445-23.641-5.544-49.81-1.737-49.114 3.148-3.664 4.397 18.89 20.291 40.298 24.556 26.445 5.27 50.373 1.131 50.373-1.259Z" style="stroke:#343a40;stroke-width:0;fill:#2e8b57"/><g fill="#343a40"><path class="node" d="M88.4 1C74 3.6 59.4 14.5 52.7 27.6c-1.4 2.7-2.2 3.1-8.8 4.1C27.4 34.3 13 45 5.6 60.2c-9.7 19.9-5.8 41.6 10.5 58.3l4.9 5-1.1 6.5c-3.2 20.2 8.5 42.8 27.3 52.3 5.7 2.9 16.9 5.7 22.8 5.7 6.2 0 17.3-2.9 23.3-6l5.8-3 4.7 2.2 4.7 2.3 3.1 12c5.8 21.8 5.9 22.9 5.9 44 0 17.6-.3 21.2-2.4 30-1.3 5.5-2.9 11.6-3.6 13.6l-1.3 3.6 9 2.9c7.2 2.3 9.1 2.6 9.8 1.5.4-.8 2.2-7.2 3.9-14.2 6.6-27 6-52.9-1.9-84-1.1-4.2-2-8-2-8.2 0-.3 1.5-.8 3.3-1.2 7.2-1.5 17.9-7.5 24.2-13.5 10.4-10.1 15.5-22.2 15.5-37.2V125l6.8-6.7c20.5-20.2 21.1-50.2 1.5-71.3-7-7.6-18.5-13.6-29.2-15.3-6.6-1-7.4-1.3-8.8-4.1-5.2-10.4-17-20.6-28.4-24.5C107.3.7 95.4-.2 88.4 1zm21.2 21c9.7 4.2 14.2 9.6 18.4 22l2.6 7.4 4.9-.4c13.7-1.3 21.7.9 29.8 7.9 7.5 6.7 11.7 19 9.7 28.8-2.2 10.6-9.4 19.3-19.9 23.9-3 1.4-5.7 2.6-5.9 2.8-.2.2.7 3.6 1.9 7.6 5.3 17.5-1.4 33.1-17.5 40.6-3.9 1.8-6.8 2.4-12.1 2.4-7.4 0-12.1-1.6-19.2-6.4-2.1-1.4-4.4-2.6-5.1-2.6-.8 0-3.5 1.9-6 4.1-7 6.2-12.3 8.2-21.2 8.2-23.7 0-37.5-22.8-27.9-45.9 1.7-4.1 3-7.7 2.8-7.8-.2-.2-2.7-1.5-5.5-2.9C29 106.5 22.2 98 20 87.7c-3.6-17.6 11-36.4 28.8-37 3.1-.1 7.9 0 10.7.3l4.9.4L67 44c4-11.8 7.9-16.8 16.7-21.4 7.7-3.9 17.9-4.2 25.9-.6z"/><path class="node" d="M89.2 73.827c-12.914 2.81-21.189 16.597-17.816 29.588 1.107 4.243 2.583 6.947 5.43 10.076 5.165 5.514 10.33 7.794 17.761 7.794 7.432 0 12.597-2.28 17.762-7.794 8.644-9.333 8.222-24.021-.949-33.248-3.425-3.447-7.062-5.462-11.648-6.416-4.322-.955-6.272-.955-10.54 0Zm11.067 10.764c2.689 1.22 5.271 3.712 6.852 6.682 1.634 3.075 1.634 9.226 0 12.302-1.528 2.863-5.323 6.204-7.958 7-4.955 1.484-10.014.476-13.599-2.705-5.481-4.826-6.482-12.302-2.477-18.294 3.9-5.78 10.805-7.795 17.183-4.985Z"/></g></svg>