<?xml version="1.0" encoding="utf-8"?>
<svg width="232.000000pt" height="300.000000pt" viewBox="0 0 232.000000 300.000000" preserveAspectRatio="xMidYMid meet" xmlns="http://www.w3.org/2000/svg">
  <g transform="matrix(0.1, 0, 0, -0.1, 0, 300)" fill="#265D0B" stroke="none">
    <path class="node" id="node1" d="M1144 2925 c-168 -99 -273 -313 -235 -477 5 -21 7 -38 5 -38 -2 0&#10;-30 21 -61 46 -31 25 -77 55 -102 65 -25 10 -55 24 -66 31 -11 6 -55 14 -97&#10;16 -68 4 -84 2 -130 -21 -141 -69 -196 -206 -128 -323 72 -126 216 -208 404&#10;-229 l59 -7 -63 -31 c-94 -47 -163 -115 -207 -205 -35 -71 -38 -82 -38 -166 0&#10;-81 3 -96 27 -138 55 -92 157 -148 273 -148 129 0 272 107 356 265 l42 80 -6&#10;-75 c-9 -106 -39 -205 -104 -339 -119 -250 -148 -399 -118 -606 3 -20 -12 2&#10;-45 65 -88 164 -179 268 -315 359 -106 71 -300 130 -427 131 -27 0 -28 -2 -28&#10;-52 0 -200 96 -383 263 -502 77 -55 185 -112 302 -161 50 -20 143 -60 208 -87&#10;l117 -50 53 22 c132 57 330 158 406 208 203 133 300 295 301 498 0 66 -17 174&#10;-30 187 -11 12 -108 -8 -215 -45 -115 -40 -216 -98 -281 -163 -49 -49 -134&#10;-184 -134 -215 0 -8 -7 -27 -14 -42 -14 -27 -30 -97 -58 -258 l-13 -75 -3 55&#10;c-11 179 42 464 123 675 75 193 83 217 96 289 6 37 9 88 5 112 l-6 44 74 -74&#10;c163 -163 331 -188 454 -68 26 26 61 74 78 107 24 50 29 72 29 135 0 68 -3 80&#10;-33 126 -30 47 -102 118 -158 154 -22 15 -21 16 44 28 36 7 71 16 76 21 6 4&#10;31 13 56 20 157 45 240 134 240 257 0 94 -43 150 -160 207 -62 31 -70 32 -180&#10;31 -107 0 -120 -3 -190 -33 -41 -17 -92 -45 -112 -61 -20 -17 -39 -30 -41 -30&#10;-2 0 7 30 20 68 14 38 25 91 26 122 1 112 -72 243 -170 304 -58 35 -97 33&#10;-169 -9z m138 6 c38 -15 117 -102 148 -165 42 -83 42 -166 0 -275 -31 -80&#10;-102 -201 -119 -201 -4 0 -28 7 -51 15 -55 19 -151 19 -197 0 -35 -15 -37 -14&#10;-61 7 -34 32 -61 89 -73 155 -29 157 75 358 228 441 61 33 87 38 125 23z&#10;m-602 -402 c83 -27 152 -72 240 -156 96 -91 98 -97 54 -118 -20 -9 -33 -19&#10;-31 -22 3 -2 -6 -28 -21 -56 -39 -78 -41 -156 -6 -238 15 -35 41 -75 57 -88&#10;38 -32 134 -70 175 -71 29 0 32 -3 32 -29 0 -41 -46 -167 -78 -216 -47 -71&#10;-133 -153 -190 -182 -47 -24 -67 -28 -136 -28 -71 0 -88 4 -135 30 -135 75&#10;-173 203 -109 373 16 42 39 74 88 123 54 55 80 72 158 104 50 22 92 43 92 47&#10;0 9 4 9 -97 10 -71 0 -143 14 -203 40 -76 32 -101 49 -161 108 -85 83 -106&#10;146 -78 231 15 43 105 132 150 146 55 18 131 15 199 -8z m1275 -15 c64 -32&#10;107 -70 130 -114 22 -43 23 -125 1 -149 -9 -10 -16 -25 -16 -34 0 -32 -130&#10;-116 -215 -137 -16 -5 -57 -16 -90 -25 -62 -17 -203 -22 -275 -10 -24 4 -40 3&#10;-40 -3 0 -11 56 -22 111 -22 98 0 223 -82 283 -184 53 -91 41 -205 -33 -302&#10;-121 -161 -288 -149 -468 33 -46 46 -83 88 -83 94 0 6 -11 25 -25 43 -42 55&#10;-38 74 21 95 72 24 117 66 150 136 45 98 31 213 -36 297 -17 20 -30 42 -30 49&#10;0 20 76 114 122 152 104 84 214 119 352 112 70 -3 99 -9 141 -31z"/>
  </g>
  <g transform="translate(0.000000,300.000000) scale(0.100000,-0.100000)" fill="#F9F909" stroke="none">
    <path class="node" id="node2" d="M1157 2908 c-153 -83 -257 -284 -228 -441 12 -66 39 -123 73 -155 24&#10;-21 26 -22 61 -7 46 19 142 19 197 0 23 -8 47 -15 51 -15 17 0 88 121 119 201&#10;58 150 34 270 -77 383 -76 77 -107 82 -196 34z" style="fill: rgb(124, 170, 247);"/>
    <path class="node" id="node3" d="M481 2537 c-45 -14 -135 -103 -150 -146 -28 -85 -7 -148 78 -231 60&#10;-59 85 -76 161 -108 60 -26 132 -40 203 -40 101 -1 97 -1 97 -10 0 -4 -42 -25&#10;-92 -47 -159 -66 -254 -182 -274 -333 -15 -116 33 -209 137 -267 47 -26 64&#10;-30 135 -30 69 0 89 4 136 28 57 29 143 111 190 182 32 49 78 175 78 216 0 26&#10;-3 29 -32 29 -41 1 -137 39 -175 71 -16 13 -42 53 -57 88 -35 82 -33 160 6&#10;238 15 28 24 54 21 56 -2 3 11 13 31 22 28 14 34 21 27 34 -16 29 -151 151&#10;-205 186 -102 65 -228 90 -315 62z" style="fill: rgb(124, 170, 247);"/>
    <path class="node" id="node4" d="M1670 2537 c-67 -16 -151 -58 -208 -104 -46 -38 -122 -132 -122 -152&#10;0 -7 13 -29 30 -49 67 -84 81 -199 36 -297 -33 -70 -78 -112 -150 -136 -59&#10;-21 -63 -40 -21 -95 14 -18 25 -37 25 -43 0 -6 37 -48 83 -94 146 -148 280&#10;-183 398 -104 83 56 148 191 136 282 -19 132 -182 275 -316 275 -55 0 -111 11&#10;-111 22 0 6 16 7 40 3 72 -12 213 -7 275 10 33 9 74 20 90 25 85 21 215 105&#10;215 137 0 9 7 24 16 34 22 24 21 106 -1 149 -23 44 -66 82 -130 114 -64 33&#10;-197 43 -285 23z" style="fill: rgb(124, 170, 247);"/>
  </g>
  <g transform="translate(0.000000,300.000000) scale(0.100000,-0.100000)" fill="#FFFFFF" stroke="none"/>
</svg>