<?xml version="1.0" encoding="utf-8"?>
<svg width="88.000000pt" height="100.000000pt" viewBox="0 0 88.000000 100.000000" preserveAspectRatio="xMidYMid meet" xmlns="http://www.w3.org/2000/svg">
  <g transform="translate(0.000000,100.000000) scale(0.100000,-0.100000)" fill="#000000" stroke="none">
    <path d="M 0 500 L 0 1000 L 440 1000 L 880 1000 L 880 500 L 880 0 L 440 0 L 0 0 L 0 500 Z" fill="#436f0e" style="stroke: rgb(0, 0, 0); stroke-width: 10;"/>
    <path d="M 421 944 C 386 963 358 963 310 947 C 247 925 200 807 231 747 C 237 735 261 701 283 672 C 307 641 319 616 314 610 C 309 605 286 605 260 610 C 186 625 102 602 80 561 C 75 550 70 520 70 493 C 70 387 170 310 250 355 C 280 372 310 374 310 359 C 310 353 297 329 281 306 C 264 282 246 243 240 218 C 218 133 263 77 363 64 C 399 59 410 62 436 83 C 465 108 500 188 500 230 C 500 258 511 280 525 280 C 532 280 557 260 582 236 C 632 185 668 172 710 190 C 751 207 804 268 825 324 C 851 393 839 411 743 448 C 700 465 665 483 665 489 C 665 496 692 515 724 533 C 807 579 824 605 824 682 C 824 721 817 757 807 777 C 790 810 745 850 726 850 C 704 850 639 787 579 708 C 545 664 515 631 512 635 C 509 638 506 680 505 728 C 504 834 472 918 421 944 Z" fill="#7caaf7" style="stroke: rgb(0, 0, 0); stroke-width: 20;"/>
  </g>
  <path d="M 43.357 42.114 C 40.226 43.959 38.802 45.564 38.065 49.734 C 39.697 52.996 39.353 53.814 43.358 56.086 C 47.991 56.495 48.96 55.934 51.825 53.545 C 53.085 49.044 52.465 48.253 51.613 45.078 C 49.144 42.451 48.296 42.271 43.357 42.114 Z" style="stroke: black; stroke-linecap: round; stroke-linejoin: round; fill: rgb(238, 242, 243);"/>
</svg>