<?xml version="1.0" encoding="utf-8"?>
<svg width="195.000000pt" height="300.000000pt" viewBox="0 0 195.000000 300.000000" preserveAspectRatio="xMidYMid meet" xmlns="http://www.w3.org/2000/svg">
  <g transform="matrix(0.1, 0, 0, -0.1, 0, 300)" fill="#A2A2A2" stroke="none">
    <path class="node" id="node5" d="M 907 2800 C 831 2781 753 2728 717 2670 C 705 2651 684 2601 670 2560 L 644 2486 L 595 2490 C 458 2503 378 2481 297 2411 C 222 2344 180 2221 200 2123 C 222 2020 290 1935 394 1883 C 422 1869 447 1856 449 1854 C 451 1853 438 1817 421 1776 C 325 1545 463 1317 700 1317 C 789 1317 842 1337 912 1399 C 937 1421 964 1440 972 1440 C 979 1440 1002 1428 1023 1414 C 1094 1366 1141 1350 1215 1350 C 1268 1350 1297 1356 1336 1374 C 1497 1449 1564 1605 1511 1780 C 1499 1820 1490 1854 1492 1856 C 1494 1858 1521 1870 1551 1884 C 1656 1930 1728 2017 1750 2123 C 1786 2299 1640 2487 1462 2493 C 1431 2494 1383 2493 1355 2490 L 1306 2486 L 1280 2560 C 1266 2601 1245 2651 1233 2670 C 1172 2767 1020 2828 907 2800 Z" style="fill: rgb(124, 170, 247);"/>
    <path class="node" id="node6" d="M 894 2242 C 773 2199 700 2088 713 1964 C 720 1896 749 1841 804 1793 C 902 1707 1048 1707 1146 1793 C 1213 1852 1235 1900 1235 1990 C 1235 2048 1230 2074 1213 2106 C 1149 2227 1013 2285 894 2242 Z" style="fill: rgb(124, 170, 247);"/>
  </g>
  <path d="M 190.681 199.604 C 191.013 200.048 180.368 216.848 164.613 221.788 C 149.785 226.438 133.368 223.244 133.805 219.148 C 131.507 215.459 145.654 202.127 159.083 198.548 C 175.671 194.128 190.681 197.6 190.681 199.604 Z" style="stroke: black; stroke-width: 0; fill: rgb(64, 109, 6);" transform="matrix(-1, -0.000001, 0.000001, -1, 322.519801, 420.566164)"/>
  <path d="M 122.382 252.447 C 122.911 251.918 105.942 231.891 80.825 226.002 C 57.184 220.458 31.015 224.265 31.711 229.15 C 28.047 233.547 50.601 249.441 72.009 253.706 C 98.454 258.976 122.382 254.837 122.382 252.447 Z" style="stroke: black; stroke-width: 0; fill: rgb(64, 109, 6);"/>
  <g transform="translate(0.000000,300.000000) scale(0.100000,-0.100000)" fill="#050505" stroke="none">
    <path class="node" id="node1" d="M884 2990 c-144 -26 -290 -135 -357 -266 -14 -27 -22 -31 -88 -41&#10;-165 -26 -309 -133 -383 -285 -97 -199 -58 -416 105 -583 l49 -50 -11 -65&#10;c-32 -202 85 -428 273 -523 57 -29 169 -57 228 -57 62 0 173 29 233 60 l58 30&#10;47 -22 47 -23 31 -120 c58 -218 59 -229 59 -440 0 -176 -3 -212 -24 -300 -13&#10;-55 -29 -116 -36 -136 l-13 -36 90 -29 c72 -23 91 -26 98 -15 4 8 22 72 39&#10;142 66 270 60 529 -19 840 -11 42 -20 80 -20 82 0 3 15 8 33 12 72 15 179 75&#10;242 135 104 101 155 222 155 372 l0 78 68 67 c205 202 211 502 15 713 -70 76&#10;-185 136 -292 153 -66 10 -74 13 -88 41 -52 104 -170 206 -284 245 -66 24&#10;-185 33 -255 21z m212 -210 c97 -42 142 -96 184 -220 l26 -74 49 4 c137 13&#10;217 -9 298 -79 75 -67 117 -190 97 -288 -22 -106 -94 -193 -199 -239 -30 -14&#10;-57 -26 -59 -28 -2 -2 7 -36 19 -76 53 -175 -14 -331 -175 -406 -39 -18 -68&#10;-24 -121 -24 -74 0 -121 16 -192 64 -21 14 -44 26 -51 26 -8 0 -35 -19 -60&#10;-41 -70 -62 -123 -82 -212 -82 -237 0 -375 228 -279 459 17 41 30 77 28 78 -2&#10;2 -27 15 -55 29 -104 52 -172 137 -194 240 -36 176 110 364 288 370 31 1 79 0&#10;107 -3 l49 -4 26 74 c40 118 79 168 167 214 77 39 179 42 259 6z"/>
    <path class="node" id="node2" d="M 891.991 2261.731 C 762.861 2233.627 680.113 2095.759 713.845 1965.845 C 724.913 1923.424 739.671 1896.381 768.133 1865.094 C 819.785 1809.948 871.437 1787.146 945.752 1787.146 C 1020.067 1787.146 1071.719 1809.948 1123.371 1865.094 C 1209.809 1958.422 1205.592 2105.303 1113.884 2197.57 C 1079.625 2232.037 1043.258 2252.186 997.404 2261.731 C 954.185 2271.275 934.683 2271.275 891.991 2261.731 Z M 1002.675 2154.088 C 1029.555 2141.892 1055.38 2116.97 1071.192 2087.274 C 1087.532 2056.52 1087.532 1995.009 1071.192 1964.254 C 1055.908 1935.621 1017.959 1902.213 991.606 1894.259 C 942.062 1879.412 891.465 1889.486 855.624 1921.303 C 800.81 1969.557 790.796 2044.323 830.853 2104.243 C 869.856 2162.042 938.9 2182.192 1002.675 2154.088 Z"/>
  </g>
</svg>