<?xml version="1.0" encoding="UTF-8" standalone="no"?>
<!DOCTYPE svg PUBLIC "-//W3C//DTD SVG 1.1//EN"
 "http://www.w3.org/Graphics/SVG/1.1/DTD/svg11.dtd">
<!-- Generated by graphviz version 2.43.0 (0)
 -->
<!-- Title: %3 Pages: 1 -->
<svg
 width="100%"
 height="100%"
 viewBox="0.00 0.00 176.99 404.00"
 xmlns="http://www.w3.org/2000/svg"
 xmlns:xlink="http://www.w3.org/1999/xlink"
 preserveAspectRatio="xMidYMid meet">
<style>
  .graph > polygon {
    fill: transparent;
    stroke: transparent;
  }
  .node ellipse {
    fill: #ffffff;
    stroke: #2f6b55;
    stroke-width: 1.5;
  }
  .node text {
    fill: #1f2a2a;
    font-family: ui-sans-serif, system-ui, -apple-system, BlinkMacSystemFont, "Segoe UI", sans-serif;
    font-size: 13px;
    font-weight: 600;
  }
  .edge path {
    stroke: #4b635c;
    stroke-width: 1.5;
  }
  .edge polygon {
    fill: #2f6b55;
    stroke: #2f6b55;
  }
</style>
<g id="graph0" class="graph" transform="scale(1 1) rotate(0) translate(4 400)">
<title>%3</title>
<polygon fill="transparent" stroke="transparent" points="-4,4 -4,-400 172.99,-400 172.99,4 -4,4"/>
<!-- Sources -->
<g id="node1" class="node">
<title>Sources</title>
<ellipse fill="none" stroke="black" cx="84.49" cy="-378" rx="48.19" ry="18"/>
<text text-anchor="middle" x="84.49" y="-374.3" font-family="Times,serif" font-size="14.00">Sources</text>
</g>
<!-- Pre&#45;Processing -->
<g id="node2" class="node">
<title>Pre&#45;Processing</title>
<ellipse fill="none" stroke="black" cx="84.49" cy="-306" rx="80.69" ry="18"/>
<text text-anchor="middle" x="84.49" y="-302.3" font-family="Times,serif" font-size="14.00">Pre&#45;Processing</text>
</g>
<!-- Sources&#45;&gt;Pre&#45;Processing -->
<g id="edge1" class="edge">
<title>Sources&#45;&gt;Pre&#45;Processing</title>
<path fill="none" stroke="black" d="M84.49,-359.7C84.49,-351.98 84.49,-342.71 84.49,-334.11"/>
<polygon fill="black" stroke="black" points="87.99,-334.1 84.49,-324.1 80.99,-334.1 87.99,-334.1"/>
</g>
<!-- MCP Boundary -->
<g id="node3" class="node">
<title>MCP Boundary</title>
<ellipse fill="none" stroke="black" cx="84.49" cy="-234" rx="81.49" ry="18"/>
<text text-anchor="middle" x="84.49" y="-230.3" font-family="Times,serif" font-size="14.00">MCP Boundary</text>
</g>
<!-- Pre&#45;Processing&#45;&gt;MCP Boundary -->
<g id="edge2" class="edge">
<title>Pre&#45;Processing&#45;&gt;MCP Boundary</title>
<path fill="none" stroke="black" d="M84.49,-287.7C84.49,-279.98 84.49,-270.71 84.49,-262.11"/>
<polygon fill="black" stroke="black" points="87.99,-262.1 84.49,-252.1 80.99,-262.1 87.99,-262.1"/>
</g>
<!-- AI Layer -->
<g id="node4" class="node">
<title>AI Layer</title>
<ellipse fill="none" stroke="black" cx="84.49" cy="-162" rx="50.09" ry="18"/>
<text text-anchor="middle" x="84.49" y="-158.3" font-family="Times,serif" font-size="14.00">AI Layer</text>
</g>
<!-- MCP Boundary&#45;&gt;AI Layer -->
<g id="edge3" class="edge">
<title>MCP Boundary&#45;&gt;AI Layer</title>
<path fill="none" stroke="black" d="M84.49,-215.7C84.49,-207.98 84.49,-198.71 84.49,-190.11"/>
<polygon fill="black" stroke="black" points="87.99,-190.1 84.49,-180.1 80.99,-190.1 87.99,-190.1"/>
</g>
<!-- Post&#45;Processing -->
<g id="node5" class="node">
<title>Post&#45;Processing</title>
<ellipse fill="none" stroke="black" cx="84.49" cy="-90" rx="84.49" ry="18"/>
<text text-anchor="middle" x="84.49" y="-86.3" font-family="Times,serif" font-size="14.00">Post&#45;Processing</text>
</g>
<!-- AI Layer&#45;&gt;Post&#45;Processing -->
<g id="edge4" class="edge">
<title>AI Layer&#45;&gt;Post&#45;Processing</title>
<path fill="none" stroke="black" d="M84.49,-143.7C84.49,-135.98 84.49,-126.71 84.49,-118.11"/>
<polygon fill="black" stroke="black" points="87.99,-118.1 84.49,-108.1 80.99,-118.1 87.99,-118.1"/>
</g>
<!-- Targets -->
<g id="node6" class="node">
<title>Targets</title>
<ellipse fill="none" stroke="black" cx="84.49" cy="-18" rx="46.29" ry="18"/>
<text text-anchor="middle" x="84.49" y="-14.3" font-family="Times,serif" font-size="14.00">Targets</text>
</g>
<!-- Post&#45;Processing&#45;&gt;Targets -->
<g id="edge5" class="edge">
<title>Post&#45;Processing&#45;&gt;Targets</title>
<path fill="none" stroke="black" d="M84.49,-71.7C84.49,-63.98 84.49,-54.71 84.49,-46.11"/>
<polygon fill="black" stroke="black" points="87.99,-46.1 84.49,-36.1 80.99,-46.1 87.99,-46.1"/>
</g>
</g>
</svg>
