<?xml version="1.0" encoding="UTF-8" standalone="no"?>
<!DOCTYPE svg PUBLIC "-//W3C//DTD SVG 1.1//EN"
 "http://www.w3.org/Graphics/SVG/1.1/DTD/svg11.dtd">
<!-- Generated by graphviz version 2.43.0 (0)
 -->
<!-- Title: %3 Pages: 1 -->
<svg
 width="100%"
 height="100%"
 viewBox="0.00 0.00 357.29 332.00"
 xmlns="http://www.w3.org/2000/svg"
 xmlns:xlink="http://www.w3.org/1999/xlink"
 preserveAspectRatio="xMidYMid meet">
<style>
  .graph > polygon {
    fill: transparent;
    stroke: transparent;
  }
  .node ellipse {
    fill: #ffffff;
    stroke: #2f6b55;
    stroke-width: 1.5;
  }
  .node text {
    fill: #1f2a2a;
    font-family: ui-sans-serif, system-ui, -apple-system, BlinkMacSystemFont, "Segoe UI", sans-serif;
    font-size: 13px;
    font-weight: 600;
  }
  .edge path {
    stroke: #4b635c;
    stroke-width: 1.5;
  }
  .edge polygon {
    fill: #2f6b55;
    stroke: #2f6b55;
  }
</style>
<g id="graph0" class="graph" transform="scale(1 1) rotate(0) translate(4 328)">
<title>%3</title>
<polygon fill="transparent" stroke="transparent" points="-4,4 -4,-328 353.29,-328 353.29,4 -4,4"/>
<!-- Mobile/Web -->
<g id="node1" class="node">
<title>Mobile/Web</title>
<ellipse fill="none" stroke="black" cx="76.49" cy="-306" rx="65.79" ry="18"/>
<text text-anchor="middle" x="76.49" y="-302.3" font-family="Times,serif" font-size="14.00">Mobile/Web</text>
</g>
<!-- API Gateway -->
<g id="node2" class="node">
<title>API Gateway</title>
<ellipse fill="none" stroke="black" cx="137.49" cy="-234" rx="70.39" ry="18"/>
<text text-anchor="middle" x="137.49" y="-230.3" font-family="Times,serif" font-size="14.00">API Gateway</text>
</g>
<!-- Mobile/Web&#45;&gt;API Gateway -->
<g id="edge1" class="edge">
<title>Mobile/Web&#45;&gt;API Gateway</title>
<path fill="none" stroke="black" d="M90.95,-288.41C98.44,-279.82 107.73,-269.16 116.03,-259.63"/>
<polygon fill="black" stroke="black" points="118.79,-261.79 122.72,-251.96 113.51,-257.2 118.79,-261.79"/>
</g>
<!-- Identity -->
<g id="node3" class="node">
<title>Identity</title>
<ellipse fill="none" stroke="black" cx="137.49" cy="-162" rx="47.39" ry="18"/>
<text text-anchor="middle" x="137.49" y="-158.3" font-family="Times,serif" font-size="14.00">Identity</text>
</g>
<!-- API Gateway&#45;&gt;Identity -->
<g id="edge2" class="edge">
<title>API Gateway&#45;&gt;Identity</title>
<path fill="none" stroke="black" d="M137.49,-215.7C137.49,-207.98 137.49,-198.71 137.49,-190.11"/>
<polygon fill="black" stroke="black" points="140.99,-190.1 137.49,-180.1 133.99,-190.1 140.99,-190.1"/>
</g>
<!-- ERP Core -->
<g id="node5" class="node">
<title>ERP Core</title>
<ellipse fill="none" stroke="black" cx="202.49" cy="-90" rx="55.79" ry="18"/>
<text text-anchor="middle" x="202.49" y="-86.3" font-family="Times,serif" font-size="14.00">ERP Core</text>
</g>
<!-- Identity&#45;&gt;ERP Core -->
<g id="edge3" class="edge">
<title>Identity&#45;&gt;ERP Core</title>
<path fill="none" stroke="black" d="M152.57,-144.76C160.74,-135.97 170.99,-124.93 180.08,-115.14"/>
<polygon fill="black" stroke="black" points="182.81,-117.34 187.05,-107.63 177.68,-112.58 182.81,-117.34"/>
</g>
<!-- Validation -->
<g id="node4" class="node">
<title>Validation</title>
<ellipse fill="none" stroke="black" cx="282.49" cy="-234" rx="57.39" ry="18"/>
<text text-anchor="middle" x="282.49" y="-230.3" font-family="Times,serif" font-size="14.00">Validation</text>
</g>
<!-- Validation&#45;&gt;ERP Core -->
<g id="edge6" class="edge">
<title>Validation&#45;&gt;ERP Core</title>
<path fill="none" stroke="black" d="M263.3,-217.01C252.66,-207.26 239.91,-194.01 231.49,-180 219.91,-160.69 212.37,-136.21 207.89,-117.81"/>
<polygon fill="black" stroke="black" points="211.29,-117 205.65,-108.03 204.47,-118.56 211.29,-117"/>
</g>
<!-- Workflows -->
<g id="node6" class="node">
<title>Workflows</title>
<ellipse fill="none" stroke="black" cx="58.49" cy="-18" rx="58.49" ry="18"/>
<text text-anchor="middle" x="58.49" y="-14.3" font-family="Times,serif" font-size="14.00">Workflows</text>
</g>
<!-- ERP Core&#45;&gt;Workflows -->
<g id="edge7" class="edge">
<title>ERP Core&#45;&gt;Workflows</title>
<path fill="none" stroke="black" d="M173.01,-74.67C151.21,-64.07 121.33,-49.54 97.55,-37.99"/>
<polygon fill="black" stroke="black" points="98.96,-34.78 88.44,-33.56 95.9,-41.08 98.96,-34.78"/>
</g>
<!-- Reporting -->
<g id="node7" class="node">
<title>Reporting</title>
<ellipse fill="none" stroke="black" cx="202.49" cy="-18" rx="57.39" ry="18"/>
<text text-anchor="middle" x="202.49" y="-14.3" font-family="Times,serif" font-size="14.00">Reporting</text>
</g>
<!-- ERP Core&#45;&gt;Reporting -->
<g id="edge8" class="edge">
<title>ERP Core&#45;&gt;Reporting</title>
<path fill="none" stroke="black" d="M202.49,-71.7C202.49,-63.98 202.49,-54.71 202.49,-46.11"/>
<polygon fill="black" stroke="black" points="205.99,-46.1 202.49,-36.1 198.99,-46.1 205.99,-46.1"/>
</g>
<!-- Workflows&#45;&gt;Mobile/Web -->
<g id="edge9" class="edge">
<title>Workflows&#45;&gt;Mobile/Web</title>
<path fill="none" stroke="black" d="M56.6,-36.11C52.73,-74.87 45.31,-172.18 58.49,-252 59.94,-260.72 62.63,-269.94 65.5,-278.2"/>
<polygon fill="black" stroke="black" points="62.26,-279.54 69.02,-287.7 68.82,-277.11 62.26,-279.54"/>
</g>
<!-- Legacy Systems -->
<g id="node8" class="node">
<title>Legacy Systems</title>
<ellipse fill="none" stroke="black" cx="263.49" cy="-306" rx="85.59" ry="18"/>
<text text-anchor="middle" x="263.49" y="-302.3" font-family="Times,serif" font-size="14.00">Legacy Systems</text>
</g>
<!-- Legacy Systems&#45;&gt;API Gateway -->
<g id="edge4" class="edge">
<title>Legacy Systems&#45;&gt;API Gateway</title>
<path fill="none" stroke="black" d="M234.59,-288.94C216.77,-279.04 193.76,-266.26 174.61,-255.62"/>
<polygon fill="black" stroke="black" points="176.27,-252.54 165.83,-250.74 172.87,-258.66 176.27,-252.54"/>
</g>
<!-- Legacy Systems&#45;&gt;Validation -->
<g id="edge5" class="edge">
<title>Legacy Systems&#45;&gt;Validation</title>
<path fill="none" stroke="black" d="M268.19,-287.7C270.31,-279.9 272.86,-270.51 275.21,-261.83"/>
<polygon fill="black" stroke="black" points="278.61,-262.67 277.85,-252.1 271.85,-260.84 278.61,-262.67"/>
</g>
<!-- CI/CD -->
<g id="node9" class="node">
<title>CI/CD</title>
<ellipse fill="none" stroke="black" cx="278.49" cy="-162" rx="38.19" ry="18"/>
<text text-anchor="middle" x="278.49" y="-158.3" font-family="Times,serif" font-size="14.00">CI/CD</text>
</g>
<!-- CI/CD&#45;&gt;ERP Core -->
<g id="edge10" class="edge">
<title>CI/CD&#45;&gt;ERP Core</title>
<path fill="none" stroke="black" d="M261.63,-145.46C251.61,-136.24 238.71,-124.36 227.52,-114.05"/>
<polygon fill="black" stroke="black" points="229.83,-111.42 220.11,-107.22 225.09,-116.57 229.83,-111.42"/>
</g>
</g>
</svg>
