<?xml version="1.0" encoding="UTF-8" standalone="no"?>
<!DOCTYPE svg PUBLIC "-//W3C//DTD SVG 1.1//EN"
 "http://www.w3.org/Graphics/SVG/1.1/DTD/svg11.dtd">
<!-- Generated by graphviz version 2.43.0 (0)
 -->
<!-- Title: %3 Pages: 1 -->
<svg
 width="100%"
 height="100%"
 viewBox="0.00 0.00 271.84 260.00"
 xmlns="http://www.w3.org/2000/svg"
 xmlns:xlink="http://www.w3.org/1999/xlink"
 preserveAspectRatio="xMidYMid meet">
<style>
  .graph > polygon {
    fill: transparent;
    stroke: transparent;
  }
  .node ellipse {
    fill: #ffffff;
    stroke: #2f6b55;
    stroke-width: 1.5;
  }
  .node text {
    fill: #1f2a2a;
    font-family: ui-sans-serif, system-ui, -apple-system, BlinkMacSystemFont, "Segoe UI", sans-serif;
    font-size: 13px;
    font-weight: 600;
  }
  .edge path {
    stroke: #4b635c;
    stroke-width: 1.5;
  }
  .edge polygon {
    fill: #2f6b55;
    stroke: #2f6b55;
  }
</style>
<g id="graph0" class="graph" transform="scale(1 1) rotate(0) translate(4 256)">
<title>%3</title>
<polygon fill="transparent" stroke="transparent" points="-4,4 -4,-256 267.84,-256 267.84,4 -4,4"/>
<!-- Clients -->
<g id="node1" class="node">
<title>Clients</title>
<ellipse fill="none" stroke="black" cx="187.15" cy="-234" rx="43.59" ry="18"/>
<text text-anchor="middle" x="187.15" y="-230.3" font-family="Times,serif" font-size="14.00">Clients</text>
</g>
<!-- Interface -->
<g id="node2" class="node">
<title>Interface</title>
<ellipse fill="none" stroke="black" cx="187.15" cy="-162" rx="52.79" ry="18"/>
<text text-anchor="middle" x="187.15" y="-158.3" font-family="Times,serif" font-size="14.00">Interface</text>
</g>
<!-- Clients&#45;&gt;Interface -->
<g id="edge1" class="edge">
<title>Clients&#45;&gt;Interface</title>
<path fill="none" stroke="black" d="M187.15,-215.7C187.15,-207.98 187.15,-198.71 187.15,-190.11"/>
<polygon fill="black" stroke="black" points="190.65,-190.1 187.15,-180.1 183.65,-190.1 190.65,-190.1"/>
</g>
<!-- Application -->
<g id="node3" class="node">
<title>Application</title>
<ellipse fill="none" stroke="black" cx="187.15" cy="-90" rx="63.09" ry="18"/>
<text text-anchor="middle" x="187.15" y="-86.3" font-family="Times,serif" font-size="14.00">Application</text>
</g>
<!-- Interface&#45;&gt;Application -->
<g id="edge2" class="edge">
<title>Interface&#45;&gt;Application</title>
<path fill="none" stroke="black" d="M187.15,-143.7C187.15,-135.98 187.15,-126.71 187.15,-118.11"/>
<polygon fill="black" stroke="black" points="190.65,-118.1 187.15,-108.1 183.65,-118.1 190.65,-118.1"/>
</g>
<!-- Domain -->
<g id="node4" class="node">
<title>Domain</title>
<ellipse fill="none" stroke="black" cx="46.15" cy="-18" rx="46.29" ry="18"/>
<text text-anchor="middle" x="46.15" y="-14.3" font-family="Times,serif" font-size="14.00">Domain</text>
</g>
<!-- Application&#45;&gt;Domain -->
<g id="edge3" class="edge">
<title>Application&#45;&gt;Domain</title>
<path fill="none" stroke="black" d="M156.9,-73.98C135.14,-63.18 105.68,-48.55 82.61,-37.1"/>
<polygon fill="black" stroke="black" points="83.99,-33.88 73.48,-32.57 80.88,-40.15 83.99,-33.88"/>
</g>
<!-- Infrastructure -->
<g id="node5" class="node">
<title>Infrastructure</title>
<ellipse fill="none" stroke="black" cx="187.15" cy="-18" rx="76.89" ry="18"/>
<text text-anchor="middle" x="187.15" y="-14.3" font-family="Times,serif" font-size="14.00">Infrastructure</text>
</g>
<!-- Application&#45;&gt;Infrastructure -->
<g id="edge4" class="edge">
<title>Application&#45;&gt;Infrastructure</title>
<path fill="none" stroke="black" d="M181.27,-72.05C180.45,-64.35 180.21,-55.03 180.54,-46.36"/>
<polygon fill="black" stroke="black" points="184.04,-46.49 181.23,-36.28 177.06,-46.01 184.04,-46.49"/>
</g>
<!-- Infrastructure&#45;&gt;Application -->
<g id="edge5" class="edge">
<title>Infrastructure&#45;&gt;Application</title>
<path fill="none" stroke="black" d="M193.06,-36.28C193.86,-44.03 194.09,-53.36 193.74,-62.01"/>
<polygon fill="black" stroke="black" points="190.24,-61.83 193.02,-72.05 197.22,-62.33 190.24,-61.83"/>
</g>
</g>
</svg>
