<?xml version="1.0" encoding="utf-8"?>
<svg width="88.000000pt" height="100.000000pt" viewBox="0 0 88.000000 100.000000" preserveAspectRatio="xMidYMid meet" xmlns="http://www.w3.org/2000/svg">
  <g transform="translate(0.000000,100.000000) scale(0.100000,-0.100000)" stroke="black" stroke-width="8">
    <path d="M 433.287 958.385 C 415.287 967.385 394.848 973.385 385.726 973.385 C 359.726 974.751 344.507 973.605 320.921 967.971 C 307.067 964.654 305.018 965.632 290.921 958.971 C 263.66 946.09 244.287 924.385 218.287 862.385 C 197.287 811.385 196.287 800.385 207.287 764.385 C 213.287 742.385 239.287 700.385 263.287 670.385 L 306.287 617.385 L 265.287 626.385 C 202.287 640.385 125.287 627.385 88.287 595.385 C 61.287 573.385 55.287 559.385 50.287 516.385 C 38.287 381.385 163.287 281.385 266.287 344.385 C 305.287 368.385 306.287 362.385 271.287 320.385 C 214.287 252.385 200.287 152.385 241.287 102.385 C 265.287 72.385 334.287 44.385 382.287 44.385 C 440.287 44.385 475.287 76.385 497.287 150.385 C 509.287 186.385 518.287 227.385 518.287 239.385 C 518.287 273.385 533.287 278.385 546.287 249.385 C 562.287 214.385 635.287 164.385 670.287 164.385 C 733.287 164.385 816.287 238.385 842.287 317.385 C 870.287 402.385 852.287 429.385 742.287 466.385 L 672.287 490.385 L 707.287 507.385 C 788.287 546.385 811.287 562.385 824.287 585.385 C 841.287 617.385 845.267 689.202 842.287 706.385 C 840.392 717.31 836.401 740.454 836.401 740.454 C 836.401 740.454 830.087 767.445 821.349 787.4 C 814.078 804.005 800.903 818.548 789.712 831.641 C 769.882 854.84 740.874 864.385 728.287 864.385 C 690.287 864.385 618.287 793.385 535.287 675.385 L 517.287 649.385 L 523.287 699.385 C 535.287 797.385 488.287 932.385 433.287 958.385 Z" style="fill: rgb(134, 171, 241);"/>
  </g>
</svg>